v -0.59119 0.739758 -0.675609
v -0.733708 0.753358 -0.531002
v -0.613852 0.506353 0.053107
v 0.32188 0.236632 0.232449
v -0.305963 0.171522 0.111922
v 0.246665 0.124609 0.448233
v -0.873233 0.403492 0.374129
v -0.761963 0.177828 0.680876
v -0.562516 0.531187 0.367227
v 0.275973 -0.510433 0.686344
v -0.086957 -0.226999 0.674457
v -0.326108 0.087352 0.343619
v 0.847356 -0.671364 -0.029567
v 0.759069 -0.388663 0.044215
v 0.802544 -0.62528 0.379072
v -0.04348 -0.704178 0.591945
v 0.376342 -0.897789 0.472215
v -0.233038 -0.208097 0.521603
v -0.747433 -0.285599 0.505507
v -0.203951 -0.625342 0.448701
v -0.435481 -0.905056 0.439065
v -0.417271 -0.628335 0.360382
v -0.70232 -0.050322 0.462497
v 0.638676 -0.604554 0.385886
v 0.542044 -0.891531 0.263767
v -0.939707 0.051524 0.51163
v -0.925504 0.096686 0.040107
v 0.201068 0.174229 -0.127825
v 0.516448 0.09236 -0.026034
v -0.341934 -0.890632 -0.345768
v -0.705349 -0.920624 -0.058476
v -0.282389 -0.694124 -0.125739
v 0.666075 -0.13091 0.353566
v 0.036367 0.616609 -0.17645
v -0.003778 0.841721 -0.317179
v -0.44186 0.506952 0.139294
v -0.148611 -0.901495 0.644548
v 0.422921 -0.206946 -0.295346
v 0.414692 -0.912902 -0.007099
v -0.432526 0.379488 0.010753
v -0.131532 0.86175 -0.108644
v -0.6076 0.350633 -0.107384
v -0.762706 0.463577 -0.033866
v 0.34284 -0.904459 -0.230166
v 0.520906 -0.583596 -0.262305
v -0.522532 -0.654053 0.018296
v -0.610071 -0.913905 0.246509
v -0.622226 0.516861 -0.665538
v -0.732598 -0.340834 -0.192824
v -0.344142 -0.35619 -0.25861
v -0.118255 -0.389531 -0.500596
v -0.118676 -0.751513 -0.333591
v -0.893256 -0.119139 0.147305
v -0.782669 -0.522354 0.168517
v -0.34152 -0.124505 -0.285833
v -0.467591 0.11434 -0.122819
v 0.008759 -0.863834 0.080429
v -0.332839 -0.920787 0.078783
v 0.063188 -0.848954 0.44519
vn 0.8738525 0.42592275 -0.23446006
vn -0.7690073 0.6317663 -0.09746312
vn -0.05703812 0.98956746 -0.13229837
vn 0.29530835 0.943592 0.14975649
vn 0.37687615 0.92592293 0.025120169
vn 0.04029122 0.7061899 0.70687515
vn -0.7717861 0.59193873 0.23228158
vn -0.046641827 0.030641595 0.9984417
vn 0.4122229 0.82901865 0.3778893
vn 0.31450385 -0.043775823 0.94824624
vn -0.32835603 0.21931195 0.9187408
vn 0.36591288 0.45959324 0.8092476
vn 0.82649624 -0.43119615 -0.36190304
vn 0.8915477 0.40860096 -0.1954175
vn 0.71386725 -0.0062577236 0.70025307
vn -0.3742281 -0.011482466 0.9272655
vn 0.2564957 -0.7961041 0.5481133
vn -0.3360183 0.2310012 0.9130882
vn -0.5334139 -0.2574955 0.8057082
vn -0.4170512 -0.06212509 0.9067572
vn -0.39647144 -0.5959022 0.6983631
vn -0.667705 -0.2637443 0.6961387
vn -0.39917704 -0.23607153 0.88596165
vn 0.6067839 -0.06846063 0.79191303
vn 0.34266004 -0.8880495 0.30651647
vn -0.83078384 -0.3856715 0.40131754
vn -0.8355067 0.011411818 -0.5493618
vn 0.09650843 0.8148034 -0.5716481
vn 0.68094003 0.644812 -0.34718588
vn -0.2100901 -0.61951447 -0.7563492
vn -0.82742167 -0.14376898 -0.54286647
vn -0.6490157 0.18168537 -0.7387618
vn 0.78113693 0.40392828 0.4760956
vn 0.7353571 -0.5007052 0.45666638
vn 0.09661533 0.056592803 -0.99371165
vn 0.58990234 0.24801962 0.768441
vn -0.11641702 -0.7544859 0.6459087
vn 0.41932777 0.3728315 -0.82774454
vn 0.32518527 -0.91644925 -0.23318508
vn 0.7837953 -0.005858534 -0.6209917
vn -0.11914079 0.82120365 0.5580593
vn 0.37051386 0.0055721607 -0.92881024
vn -0.8691781 0.4317247 -0.24112934
vn 0.253002 -0.7168478 -0.6497071
vn 0.58691025 -0.1615837 -0.79336435
vn -0.841043 -0.26058763 -0.47406822
vn -0.8607364 -0.28071526 0.42465487
vn -0.61412185 -0.5369955 -0.57835126
vn -0.62403077 -0.32814962 -0.70915675
vn -0.4867514 -0.33380067 -0.80724853
vn -0.26429692 -0.122665726 -0.9566087
vn -0.31696764 -0.03710332 -0.94771034
vn -0.98408586 -0.09041596 0.15297112
vn -0.7599956 -0.6463585 0.06802488
vn -0.24152675 0.3335033 -0.91128504
vn 0.099734075 0.4841025 -0.8693088
vn -1.4379651E-4 -0.9994503 0.03315015
vn 0.06953233 -0.9975757 0.0027920392
vn -0.012305153 -0.99425745 -0.106304884
f 1//1 2//2 3//3
f 4//4 5//5 6//6
f 7//7 8//8 9//9
f 10//10 6//6 11//11
f 5//5 12//12 6//6
f 13//13 14//14 15//15
f 16//16 17//17 10//10
f 18//18 19//19 20//20
f 21//21 20//20 22//22
f 18//18 23//23 19//19
f 15//15 24//24 25//25
f 18//18 12//12 23//23
f 6//6 12//12 18//18
f 26//26 7//7 27//27
f 16//16 11//11 18//18
f 28//28 4//4 29//29
f 16//16 10//10 11//11
f 30//30 31//31 32//32
f 12//12 9//9 8//8
f 12//12 8//8 23//23
f 33//33 6//6 10//10
f 34//34 35//35 36//36
f 37//37 16//16 21//21
f 24//24 33//33 10//10
f 38//38 29//29 14//14
f 13//13 25//25 39//39
f 24//24 10//10 17//17
f 37//37 17//17 16//16
f 40//40 34//34 36//36
f 35//35 41//41 36//36
f 1//1 3//3 42//42
f 7//7 43//43 27//27
f 44//44 45//45 39//39
f 17//17 25//25 24//24
f 46//46 47//47 22//22
f 14//14 33//33 24//24
f 48//48 1//1 42//42
f 40//40 9//9 5//5
f 9//9 40//40 36//36
f 25//25 13//13 15//15
f 14//14 24//24 15//15
f 43//43 9//9 3//3
f 3//3 9//9 36//36
f 2//2 43//43 3//3
f 14//14 29//29 33//33
f 43//43 7//7 9//9
f 4//4 6//6 33//33
f 29//29 4//4 33//33
f 5//5 9//9 12//12
f 20//20 21//21 16//16
f 46//46 49//49 50//50
f 22//22 47//47 21//21
f 11//11 6//6 18//18
f 47//47 46//46 31//31
f 42//42 27//27 43//43
f 3//3 36//36 41//41
f 8//8 7//7 26//26
f 48//48 2//2 1//1
f 43//43 2//2 48//48
f 32//32 51//51 52//52
f 30//30 32//32 52//52
f 32//32 50//50 51//51
f 19//19 53//53 54//54
f 41//41 35//35 3//3
f 19//19 23//23 53//53
f 46//46 54//54 49//49
f 46//46 32//32 31//31
f 54//54 53//53 49//49
f 53//53 27//27 49//49
f 50//50 55//55 51//51
f 18//18 20//20 16//16
f 55//55 38//38 51//51
f 3//3 40//40 42//42
f 5//5 28//28 56//56
f 56//56 28//28 55//55
f 40//40 56//56 42//42
f 45//45 38//38 14//14
f 4//4 28//28 5//5
f 29//29 38//38 28//28
f 55//55 27//27 56//56
f 13//13 45//45 14//14
f 27//27 42//42 56//56
f 13//13 39//39 45//45
f 34//34 40//40 35//35
f 44//44 51//51 45//45
f 42//42 43//43 48//48
f 53//53 23//23 27//27
f 51//51 38//38 45//45
f 44//44 52//52 51//51
f 40//40 3//3 35//35
f 44//44 30//30 52//52
f 49//49 55//55 50//50
f 55//55 28//28 38//38
f 49//49 27//27 55//55
f 32//32 46//46 50//50
f 40//40 5//5 56//56
f 23//23 26//26 27//27
f 39//39 57//57 44//44
f 23//23 8//8 26//26
f 59//59 21//21 57//57
f 57//57 17//17 59//59
f 46//46 22//22 54//54
f 22//22 19//19 54//54
f 30//30 58//58 31//31
f 47//47 31//31 58//58
f 22//22 20//20 19//19
f 44//44 57//57 30//30
f 58//58 30//30 57//57
f 57//57 39//39 25//25
f 57//57 25//25 17//17
f 59//59 37//37 21//21
f 59//59 17//17 37//37
f 57//57 21//21 58//58
f 47//47 58//58 21//21
