v 1.000000 -1.000000 -1.000000
v 1.000000 -1.000000 1.000000
v -1.000000 -1.000000 1.000000
v -1.000000 -1.000000 -1.000000
v 1.000000 1.000000 -1.000000
v 1.000000 1.000000 1.000000
v -1.000000 1.000000 1.000000
v -1.000000 1.000000 -1.000000
vt 1.0000 1.0000
vt 0.0000 1.0000
vt 0.0000 0.0000
vt 1.0000 0.0000
vn 1.000000 0.000000 0.000000
vn -1.000000 0.000000 0.000000
vn 0.000000 1.000000 0.000000
vn 0.000000 -1.000000 0.000000
vn 0.000000 0.000000 1.000000
vn 0.000000 0.000000 -1.000000
f 1/1/4 2/2/4 3/3/4
f 1/1/4 3/3/4 4/4/4
f 1/4/1 5/1/1 6/2/1
f 1/4/1 6/2/1 2/3/1
f 2/4/5 6/1/5 7/2/5
f 2/4/5 7/2/5 3/3/5
f 3/2/2 7/3/2 8/4/2
f 3/2/2 8/4/2 4/1/2
f 4/2/6 8/3/6 5/4/6
f 4/2/6 5/4/6 1/1/6
f 5/1/3 8/2/3 7/3/3
f 5/1/3 7/3/3 6/4/3

